<?xml version="1.0" encoding="UTF-8"?>
<svg version="1.1" viewBox="0 0 2048 880" width="758" height="326" xmlns="http://www.w3.org/2000/svg">
<path transform="translate(1623,236)" d="m0 0 5 1 24 13 41 23 25 15 26 15 24 14 16 9 27 15 3 3v46h30l17 1 3 5v6l-2 3-3 1h-44v38h42l26 1 1 1v10l-2 4-3 1h-64v24l-1 14h73l17 1v10l-2 4-13 1h-74v16l-1 28-3 5-10 6-25 14-24 14-21 12-24 14-26 15-45 25-5 2h-14l-16-8-22-13-28-16-52-30-24-14-23-13-14-8-3-3v-216l8-6 24-14 25-14 39-23 42-24 22-12 24-14z" fill="#EEAF36"/>
<path transform="translate(1623,236)" d="m0 0 5 1 24 13 41 23 25 15 26 15 24 14 16 9 27 15 3 3v46h30l17 1 3 5v6l-2 3-3 1h-44v38h42l26 1 1 1v10l-2 4-3 1h-64v24l-1 14h73l17 1v10l-2 4-13 1h-74v16l-1 28-3 5-10 6-25 14-24 14-21 12-24 14-26 15-45 25-5 2h-14l-16-8-22-13-28-16-52-30-24-14-23-13-14-8-3-3v-216l8-6 24-14 25-14 39-23 42-24 22-12 24-14zm0 16-17 9-11 7-24 14-18 10-21 12-22 13-28 16-20 11-10 6-2 3-1 24v175l6 5 29 16 23 13 17 10 23 13 26 15 28 16 18 11 9 1 11-6 19-11 23-13 26-15 14-8 20-12 11-6 45-25 3-3 1-5v-15l-1-18-5-2-34-1-4-2-1-5 3-3 29-1h7l4-2 1-2v-35l-2-2-17-1-40-1-5-3v-6l2-2 59-1 3-3v-36l-2-2-76-1-7-2v-9l83-1 2-3v-37l-5-4-12-6-34-20-5-1-27 15-27 16-21 12-27 16-21 12-44 26-6 5-1 5-1 41-2 4-9-2-19-11-23-13-13-8-4-3v-56l14-9 18-10 24-14 69-39 19-11 16-9 9-6 2-3-4-4-21-12-17-10z" fill="#090908"/>
<path transform="translate(1683,287)" d="m0 0 6 1 29 17 9 5 2 2-1 4-17 10-20 12-21 12-23 13-24 14-25 14-27 15-12 8-2 37-1 2-7-1-18-10-12-7-6-3-3-5v-37l3-5 11-6 24-14 21-12 38-22 21-12 52-30z" fill="#CA972A"/>
<path transform="translate(1068,374)" d="m0 0h12l18 3 16 6 12 7 8 7 8 10 8 15 4 14 1 5v23l-3 14-4 10-9 13-6 7-10 8-11 6-12 5-12 3-10 1h-10l-15-2-12-4-15-8-12-10-10-14-6-12-4-16v-25l4-16 7-14 7-9 4-5 13-10 15-7 11-3zm-3 26-13 4-11 7-7 7-6 10-4 12-1 6v16l4 14 7 11 7 8 9 6 10 4 12 2 14-1 12-5 10-7 9-10 6-12 2-7 1-12-2-16-5-13-7-9-9-8-11-5-8-2z" fill="#090909"/>
<path transform="translate(1273,374)" d="m0 0h14l22 3 18 6 5 4 1 3-9 19-3 1-16-6-10-2h-23l-12 3-13 7-8 7-7 12-3 12v21l4 13 8 11 8 7 10 5 11 3 7 1h12l19-3 5-2 1-3 1-22h-40l-2-4v-21h68l1 1v33l-1 31-10 6-15 6-16 4-10 1h-15l-15-2-15-5-12-6-12-9-7-8-7-11-6-13-3-15v-19l4-16 8-16 8-11 11-10 13-8 14-5z" fill="#0A0A0A"/>
<path transform="translate(676,377)" d="m0 0h28l1 1v66h71v-67h29v151l-8 1h-20l-1-36v-24h-70l-2 59-3 1h-25l-1-4v-147z" fill="#101010"/>
<path transform="translate(349,377)" d="m0 0h99v25l-11 1-60-1v20l-1 21h18l47 1-1 24h-63v17l-1 18h71l1 1v24l-17 1h-75l-7-1-1-1v-149z" fill="#080807"/>
<path transform="translate(563,374)" d="m0 0h22l19 4 15 5 6 4 1 3-9 19-5 1-10-5-13-3-9-1h-10l-15 3-14 7-6 5-8 11-4 9-2 10v15l2 9 6 12 8 9 10 7 10 4 10 2h19l14-3 16-6 4 1 7 19-2 4-16 7-16 4-10 1h-14l-16-2-14-4-15-8-10-8-9-10-8-14-5-13-2-21 2-16 6-16 7-12 11-12 10-8 16-8 16-4z" fill="#0A0A09"/>
<path transform="translate(1623,252)" d="m0 0 5 1 21 12 17 10 4 4-4 5-20 11-24 14-41 23-26 15-21 12-16 9-18 11-1 1v56l10 7 23 13 14 8 12 7 9 2 2-4 1-41 2-6 5-4 24-14 15-9 21-12 29-17 48-28 25-14 5-3 6 2 25 14 17 10 6 3 2 2v37l-2 3-83 1v9l7 2 76 1 2 2v36l-3 3-59 1-2 2v6l5 3 40 1 17 1 2 2v35l-2 3-3 1h-13l-23 1-3 3 1 5 4 2 34 1 5 2 1 18v15l-2 6-9 6-17 9-23 13-17 10-18 10-17 10-26 15-16 9-28 16-9-1-22-13-24-14-28-16-23-13-24-14-45-25-4-4v-175l1-24 5-5 27-15 23-13 24-14 21-12 16-9 26-15 18-11zm0 6-16 8-22 13-21 12-13 7-46 26-15 9-19 11-14 9-3 4v173l2 20 1 3h2v2l5 4 9 5 18 11 21 12 22 12 21 12 16 9 14 8 17 10 11 6 6 3 5 1 9-2 16-9 14-9 9-5 23-13 18-10 22-12 24-14 25-14 10-7 2-4v-27l-1-4-3-1-26-1-8-2-3-2-1-8 1-4 9-1 30-1 3-4v-28l-2-3-14-1h-31l-11-1-5-3-1-9 2-4 3-1 57-1 2-5v-18l-1-11-1-1-55-1-21-1-5-2-1-2v-7l2-4 9-1 71-1 1-2v-33l-4-4-15-8-13-8-14-7-3-2-5 1-9 6-2 1v2l-5 1-9 6-14 7-9 5-20 11-7 4-12 7-14 7-21 12-15 8-11 7-11 6-8 5-2 2-1 10v30l-3 11-5 1-16-7-13-8-12-6-16-9-11-8-1-3v-48l2-8 9-6 8-4 24-14 14-9 10-5 19-11 12-6 7-5 14-7 13-8 22-13v-2l4-1 6-5-5-10-19-10-8-4z" fill="#CA972A"/>
<path transform="translate(177,377)" d="m0 0h128l1 1v23l-1 1-48 1-1 125-1 1-27-1-1-14v-111l-48-1-2-7z" fill="#0D0D0D"/>
<path transform="translate(866,377)" d="m0 0h29v126h70l1 1v23l-2 1h-97l-1-1-1-149z" fill="#080808"/>
</svg>
