<svg version="1.1" id="Layer_1" xmlns="http://www.w3.org/2000/svg" xmlns:xlink="http://www.w3.org/1999/xlink" x="0px" y="0px"
	 width="100%" viewBox="0 0 1024 1024" enable-background="new 0 0 1024 1024" xml:space="preserve">
<path fill="#000000" opacity="1.000000" stroke="none" 
	d="
M60.003174,702.260559 
	C61.371059,694.667847 61.453484,687.582153 59.830437,680.461243 
	C58.763287,675.779297 60.514748,672.004578 63.261433,668.003357 
	C69.707039,658.613708 76.084930,649.315552 79.239052,637.838318 
	C82.111526,627.385864 87.081009,617.359192 92.810219,608.008179 
	C96.118042,602.609375 104.453583,600.705200 110.827858,602.965210 
	C118.842934,605.806885 125.788780,610.265991 131.040375,617.066040 
	C134.181793,621.133789 137.723785,624.145264 143.329361,622.630249 
	C149.080292,621.075867 152.228577,617.084167 153.553162,611.470520 
	C153.780792,610.505859 154.066299,609.434998 153.871597,608.508423 
	C150.698257,593.406616 155.834900,579.143311 158.298706,564.623352 
	C158.709503,562.202393 159.776642,559.871887 160.698166,557.562500 
	C162.973969,551.859253 166.070557,546.530273 167.618225,540.473816 
	C168.708206,536.208496 171.371765,532.698120 175.800095,530.976562 
	C176.699707,530.626831 177.904282,530.189941 178.260178,529.451843 
	C180.964005,523.843933 184.055740,518.328613 185.910126,512.433289 
	C187.641342,506.929535 187.885101,500.971741 188.994568,495.254761 
	C190.156479,489.267639 190.852295,483.425568 187.676529,477.739807 
	C186.996017,476.521393 186.913712,474.809570 186.994873,473.349457 
	C187.908722,456.908813 185.676712,440.773468 182.021378,424.832886 
	C179.924683,415.689392 180.329239,406.656769 181.894424,397.596344 
	C184.478561,382.637604 184.678055,367.422333 186.938141,352.434082 
	C187.136581,351.118042 187.186188,349.707703 187.714798,348.524261 
	C193.905182,334.665375 194.154449,319.685699 195.834503,305.011383 
	C197.485138,290.594238 204.500183,280.089386 217.293289,273.411530 
	C226.028519,268.851898 233.718079,262.684021 241.803482,257.172760 
	C247.406769,253.353378 250.828918,246.989105 254.343201,241.158112 
	C265.456360,222.718826 281.077911,208.725662 297.596069,195.319595 
	C308.598694,186.389923 320.460724,179.158157 333.315155,173.673630 
	C347.630341,167.565857 361.426575,160.179779 377.155518,157.433640 
	C389.893799,155.209656 402.441864,151.795990 414.588806,146.898239 
	C425.548065,142.479355 437.193207,139.970322 448.835480,137.865768 
	C455.572723,136.647903 462.216766,135.245941 468.729401,133.100250 
	C493.531219,124.928894 517.643250,124.332260 540.531799,139.328934 
	C553.500671,147.826218 568.192200,153.183350 581.506531,161.125961 
	C585.144165,163.295944 589.739990,163.786957 593.691589,165.515839 
	C611.434570,173.278564 628.276917,182.685852 644.229675,193.682068 
	C659.615723,204.287643 672.183044,217.748749 683.518494,232.444382 
	C686.696533,236.564575 690.270325,240.343994 694.244446,243.589523 
	C707.698425,254.577148 717.751770,268.387177 728.006836,282.197540 
	C746.052307,306.499084 760.394470,333.040710 775.790894,358.947388 
	C784.567200,373.714813 788.393799,389.978210 788.886047,407.074463 
	C789.084167,413.954895 790.543640,420.667206 792.243103,427.258087 
	C795.418213,439.572021 795.355225,451.953827 794.405029,464.482300 
	C793.697632,473.808960 794.087952,483.132111 796.144043,492.324219 
	C798.167175,501.368866 804.046082,508.094025 810.134583,514.436096 
	C817.969238,522.597107 827.133484,529.554016 834.464966,538.109375 
	C846.542786,552.203186 859.266235,565.828369 867.973267,582.624939 
	C877.920349,601.813660 888.855530,620.396790 900.845886,638.512878 
	C919.157776,666.180115 932.210754,696.226196 934.369629,730.298767 
	C935.508118,748.265869 940.372498,765.739563 947.654968,782.367249 
	C949.794373,787.252075 950.557312,792.220886 949.152710,797.467224 
	C946.954956,805.675964 944.837952,813.906433 942.708191,822.133240 
	C941.149902,828.152588 936.582031,832.382141 933.441284,837.441406 
	C930.958862,841.440063 928.779114,845.464600 927.154541,849.863892 
	C925.448914,854.482422 922.836487,858.470459 918.317505,860.894531 
	C915.150085,862.593628 913.657471,865.424683 912.731750,868.795593 
	C910.091675,878.408447 908.373230,888.443848 901.786072,896.455261 
	C893.655273,906.343994 885.778320,916.590820 872.431335,920.066345 
	C866.365906,921.645752 862.331726,926.540039 857.755493,930.208862 
	C844.434265,940.888611 828.910278,945.725586 812.655334,948.868286 
	C799.081604,951.492615 785.425964,953.616394 772.334839,958.341553 
	C766.835876,960.326294 761.084656,961.498230 755.227600,959.592773 
	C753.973389,959.184753 752.583069,958.767456 751.630066,957.928711 
	C743.838623,951.071777 734.978516,952.594543 726.057068,954.515259 
	C725.259216,954.686951 724.284729,954.938354 723.794373,955.502319 
	C717.030273,963.280640 708.844482,962.571655 700.548401,959.044189 
	C688.643738,953.982361 676.009827,954.968140 663.627380,954.162292 
	C652.478394,953.436707 641.234680,953.357361 630.960022,959.089233 
	C630.257874,959.480835 629.345459,959.743225 628.554871,959.692383 
	C607.795593,958.356506 586.715027,965.102661 566.191345,957.138794 
	C563.290466,956.013123 559.962280,955.217041 556.900696,955.402649 
	C537.075745,956.604065 517.635681,949.338074 497.721039,952.828918 
	C495.618652,953.197510 493.329193,953.246704 491.243042,952.842590 
	C473.161285,949.340149 455.375641,952.239502 437.674072,955.462158 
	C422.029327,958.310425 406.327576,959.922180 390.467010,958.939941 
	C379.096283,958.235718 367.907104,961.143555 356.571930,960.152039 
	C346.295166,959.253113 335.990997,958.607666 325.988739,955.652283 
	C321.520111,954.331909 316.830902,953.968140 312.131958,954.018738 
	C283.583282,954.325867 255.366745,951.272095 227.078766,947.431213 
	C211.485855,945.313965 196.303329,940.159058 180.292633,940.751404 
	C175.123749,940.942627 171.026413,937.904602 168.735977,933.218445 
	C165.331802,926.253540 160.234253,922.047729 152.342224,921.015442 
	C144.258804,919.958008 137.614456,915.578186 132.056320,909.951233 
	C124.647514,902.450623 115.968246,900.007263 105.702248,900.900574 
	C96.471359,901.703918 88.713585,897.967834 82.730812,891.025391 
	C79.229637,886.962646 76.897072,882.120178 75.852730,876.768616 
	C74.097977,867.777039 72.482933,858.755981 70.576035,849.796936 
	C68.805710,841.479553 66.519310,833.438660 61.478806,826.207886 
	C58.701340,822.223450 57.036266,817.184692 55.920273,812.377380 
	C53.344852,801.283203 48.649040,790.478394 50.758087,778.615417 
	C51.648510,773.606812 50.317204,768.665894 49.452705,763.751465 
	C48.739529,759.697449 49.142025,755.928894 50.860577,752.081360 
	C53.931488,745.206360 54.505978,737.596069 56.352219,730.362671 
	C58.638393,721.405762 60.652386,712.182129 60.003174,702.260559 
M464.646820,602.018066 
	C464.652222,547.533203 464.645660,493.048340 464.681793,438.563477 
	C464.685333,433.218170 462.855621,429.284180 458.116730,426.235107 
	C451.567322,422.021088 444.362793,419.312439 437.490479,415.856964 
	C430.272614,412.227722 423.454773,407.776764 416.052795,404.471497 
	C408.074677,400.908966 404.350922,403.338928 404.346954,411.960571 
	C404.334839,438.286743 404.345520,464.612885 404.338654,490.939056 
	C404.338165,492.770630 404.530304,494.656647 404.166534,496.421204 
	C403.594116,499.197754 401.931702,501.253784 398.873901,499.632996 
	C394.066559,497.084839 389.059021,495.046753 384.057159,492.961365 
	C375.434631,489.366486 367.201385,484.865692 358.191864,482.160034 
	C353.101135,480.631287 350.652191,476.943085 350.651398,471.638336 
	C350.646973,441.313263 350.575806,410.987854 350.719238,380.663452 
	C350.741852,375.881500 348.913635,372.389343 344.843964,370.632935 
	C338.470917,367.882324 332.471558,364.467041 326.336273,361.289459 
	C321.046234,358.549683 316.360321,360.922058 316.358795,366.439087 
	C316.344208,418.258331 316.373291,470.077576 316.295135,521.896729 
	C316.290680,524.835510 317.218567,526.966675 319.344666,528.841003 
	C324.071625,533.008301 329.664062,535.902283 335.203918,538.585449 
	C344.433716,543.055664 352.900085,548.832214 361.837311,553.766907 
	C368.592987,557.497009 375.075287,562.279846 381.833496,566.088440 
	C398.773987,575.635376 415.860870,584.930115 432.701172,594.668335 
	C440.015106,598.897705 447.810455,602.236328 454.459442,607.671326 
	C458.486725,610.963440 463.497345,608.370789 464.646820,602.018066 
M526.667908,507.524750 
	C530.007874,497.792267 532.574158,487.916870 538.118408,478.871155 
	C546.664917,464.926971 557.473145,453.611847 571.263245,445.052277 
	C584.706909,436.707733 599.280212,431.665009 615.145935,430.638947 
	C618.929138,430.394257 620.521606,427.848419 620.542725,424.644196 
	C620.675598,404.514587 620.694580,384.383026 620.545776,364.253662 
	C620.511658,359.643921 616.672302,357.612946 612.606262,359.684662 
	C604.837097,363.643219 597.658264,368.564362 589.313354,371.643005 
	C579.859924,375.130646 570.972473,380.163971 561.870728,384.590607 
	C551.189575,389.785339 540.297546,394.614349 529.959595,400.425110 
	C521.920044,404.944000 513.429932,408.409882 505.219025,412.497559 
	C496.354401,416.910706 487.127563,420.624634 478.679504,425.840424 
	C475.317657,427.916016 472.278107,430.304047 472.286407,435.150787 
	C472.381897,490.957397 472.333405,546.764221 472.372131,602.570984 
	C472.375946,608.078613 477.642059,611.080383 482.054993,607.786316 
	C485.396088,605.292358 489.075958,603.611084 492.598145,601.551819 
	C504.194183,594.772095 515.773010,587.962402 527.318909,581.097595 
	C535.944031,575.969421 536.778076,573.406799 532.426208,564.192444 
	C528.622009,556.137756 525.416077,547.701416 524.927185,538.958801 
	C524.359497,528.808960 523.134094,518.385620 526.667908,507.524750 
M604.375427,343.228271 
	C598.918396,339.369995 593.297852,335.783508 587.496155,332.449219 
	C577.337402,326.610809 567.319763,320.527283 557.199097,314.621674 
	C552.991028,312.166168 548.879028,312.220337 544.609924,314.961121 
	C538.049805,319.172791 531.484314,323.463684 524.545105,326.978790 
	C510.498230,334.094391 497.642853,343.204956 483.854828,350.785370 
	C475.939636,355.136993 468.096191,360.064423 460.245148,364.629242 
	C446.795227,372.449341 433.768799,381.136810 419.451202,387.451111 
	C417.461060,388.328796 415.513489,389.833405 415.596466,392.248016 
	C415.673828,394.499023 417.124481,395.887299 419.397156,396.939209 
	C427.558685,400.716949 435.537415,404.887543 443.626099,408.825714 
	C448.488922,411.193298 453.792480,412.857727 458.241272,415.823273 
	C464.024963,419.678589 469.521759,419.910004 475.443054,416.933014 
	C482.479828,413.395203 489.705353,410.267975 496.721893,406.662262 
	C507.664764,401.038910 518.594788,395.370819 529.995300,390.625031 
	C538.340332,387.151154 546.079956,382.231079 554.405029,378.699646 
	C571.807739,371.317505 588.243103,362.002167 605.271851,353.883850 
	C607.539978,352.802521 609.699707,351.163818 609.587524,348.265717 
	C609.479553,345.475098 607.149597,344.564606 604.375427,343.228271 
M796.654358,797.141968 
	C798.884827,793.576843 798.674561,789.601562 798.665649,785.631958 
	C798.631226,770.300659 798.658752,754.969238 798.644836,739.637878 
	C798.638367,732.567078 796.607666,730.460999 789.557617,730.390137 
	C782.559265,730.319824 775.559570,730.376709 768.560486,730.380066 
	C760.046204,730.384155 759.999817,730.435730 758.209839,738.628784 
	C758.038086,739.414917 757.568665,740.136047 757.237305,740.887268 
	C754.785828,746.445435 756.765625,751.708740 758.888306,756.653748 
	C760.367798,760.100281 764.236389,758.433594 767.060242,758.621399 
	C769.804382,758.803955 770.353882,760.246582 770.338501,762.530518 
	C770.302612,767.862854 770.327576,773.195557 770.333862,778.528137 
	C770.338501,782.417419 768.419739,784.372253 764.513733,784.356384 
	C762.680725,784.348938 760.825378,784.176575 759.018250,784.394592 
	C750.563232,785.414917 748.379822,782.118347 748.720337,773.656921 
	C749.565918,752.647827 746.978088,731.613159 750.401367,710.576477 
	C752.320923,698.780273 751.239319,698.604004 763.368408,698.648682 
	C764.368225,698.652344 765.374146,698.736877 766.366821,698.655945 
	C769.474609,698.402527 770.457458,699.973328 770.357605,702.859436 
	C770.236633,706.354370 770.127808,709.875000 770.410278,713.352295 
	C770.764404,717.709900 773.327942,720.367188 777.754028,720.585999 
	C782.242126,720.807800 786.757080,720.788879 791.247192,720.586670 
	C796.248535,720.361450 798.606873,717.684265 798.634277,712.602600 
	C798.668396,706.270325 799.056091,699.906311 798.572144,693.611328 
	C797.317505,677.291809 788.015747,669.513611 774.093933,668.523315 
	C763.979614,667.803894 753.771667,668.277771 743.608459,668.424683 
	C739.091187,668.489868 734.682739,669.884766 731.152283,672.584717 
	C723.927368,678.110046 720.483582,685.939087 720.422668,694.851746 
	C720.223267,724.013367 720.377136,753.177307 720.320984,782.340149 
	C720.310730,787.643921 720.466553,792.803894 722.369080,797.915466 
	C724.979004,804.927429 735.509583,812.984253 742.331970,812.738342 
	C752.649780,812.366455 763.007935,812.252747 773.316956,812.725525 
	C784.801819,813.252319 791.249695,806.655090 796.654358,797.141968 
M630.340515,773.493164 
	C630.441406,779.898865 630.984741,786.178833 632.036682,792.582031 
	C633.831482,803.507202 642.700134,812.651794 653.851257,812.646301 
	C663.681335,812.641418 673.513794,812.774719 683.340515,812.592041 
	C689.190796,812.483276 694.744873,809.952515 698.218384,805.792236 
	C703.360657,799.633362 706.614563,792.074463 706.631714,783.689636 
	C706.686218,757.027771 706.656006,730.365723 706.652588,703.703735 
	C706.651855,698.099854 706.874634,692.543884 704.657349,687.118225 
	C699.833374,675.314209 693.977661,668.935852 679.968506,668.431458 
	C671.314514,668.119934 662.632629,668.148560 653.977905,668.447815 
	C648.295166,668.644348 643.097229,670.527405 638.758057,674.591736 
	C632.507141,680.446777 630.673340,688.266418 630.527832,696.012939 
	C630.049255,721.499512 630.343689,747.000610 630.340515,773.493164 
M482.649902,802.368225 
	C482.651398,789.877380 482.563599,777.385681 482.680542,764.895935 
	C482.788879,753.323242 480.846344,754.929382 493.077393,754.578979 
	C497.306732,754.457764 498.465485,756.020691 498.415741,760.062988 
	C498.231323,775.049561 498.329834,790.039917 498.357910,805.028748 
	C498.369110,811.006958 500.037231,812.612671 506.131775,812.647156 
	C510.628082,812.672607 515.166443,812.271729 519.610840,812.754272 
	C525.689819,813.414368 528.562927,809.687744 528.581055,803.608948 
	C528.706299,761.640381 528.676086,719.671265 528.634338,677.702332 
	C528.628601,671.919983 525.046570,668.441223 519.402893,668.382568 
	C515.406433,668.341003 511.408691,668.358093 507.412018,668.397217 
	C501.472900,668.455322 498.378754,671.564331 498.360870,677.606995 
	C498.322906,690.430725 498.428955,703.255310 498.323242,716.078308 
	C498.227203,727.731018 500.066864,726.109192 487.963501,726.444214 
	C483.783386,726.559875 482.529602,725.036865 482.580170,720.960449 
	C482.766052,705.973877 482.685486,690.983459 482.629547,675.994751 
	C482.609070,670.516907 480.526947,668.470642 475.091492,668.391785 
	C470.595825,668.326538 466.098206,668.356628 461.601776,668.390808 
	C455.485748,668.437378 454.366882,669.547974 454.356873,675.768921 
	C454.330627,692.090149 454.348938,708.411438 454.349335,724.732666 
	C454.349976,751.712708 454.339386,778.692749 454.359650,805.672791 
	C454.364136,811.645752 455.356323,812.605347 461.367645,812.645752 
	C465.363983,812.672546 469.361389,812.575684 473.357330,812.620117 
	C482.157928,812.717957 482.634918,812.262756 482.649902,802.368225 
M285.665405,668.378479 
	C276.177643,667.117859 274.249908,672.253174 274.274597,679.587646 
	C274.414795,721.244385 274.337646,762.901794 274.360229,804.559021 
	C274.363770,811.089111 275.847778,812.602966 282.199951,812.629272 
	C293.196899,812.674866 304.194153,812.658447 315.191254,812.658813 
	C323.689270,812.659119 332.189453,812.759888 340.684570,812.599548 
	C346.823151,812.483643 348.604858,810.487976 348.644867,804.375427 
	C348.671021,800.376526 348.661377,796.377197 348.648315,792.378174 
	C348.626038,785.545959 347.410828,784.363159 340.369537,784.357056 
	C329.538666,784.347656 318.706360,784.256287 307.877716,784.411743 
	C304.169556,784.464966 302.400879,783.497192 302.578491,779.375488 
	C302.865204,772.722595 302.830994,766.042480 302.595795,759.385681 
	C302.460327,755.553040 304.033722,754.518494 307.605286,754.595764 
	C315.765961,754.772400 323.935150,754.530151 332.097382,754.668213 
	C336.606171,754.744446 338.486938,752.430420 338.606140,748.319946 
	C338.731628,743.991089 338.660553,739.656067 338.647400,735.323792 
	C338.627319,728.718750 336.418060,726.483276 329.635284,726.408936 
	C322.637695,726.332275 315.638306,726.333862 308.640472,726.392700 
	C304.450470,726.427856 302.569489,724.461121 302.638153,720.292664 
	C302.728699,714.795471 302.837555,709.287598 302.595306,703.799500 
	C302.425507,699.953247 303.681641,698.489258 307.690338,698.576843 
	C318.016327,698.802429 328.350708,698.672424 338.681580,698.634827 
	C345.464478,698.610107 348.590210,695.407043 348.643951,688.509888 
	C348.673828,684.677673 348.670349,680.844910 348.647430,677.012573 
	C348.606506,670.171204 346.858795,668.377563 340.108917,668.371582 
	C322.279633,668.355774 304.450348,668.373840 285.665405,668.378479 
M373.966675,808.464783 
	C379.148651,811.595947 384.652740,813.002197 390.811188,812.749084 
	C399.458466,812.393677 408.131073,812.669006 416.792786,812.641357 
	C418.439392,812.636108 420.081299,812.770752 421.697449,812.060425 
	C432.457672,807.330627 437.511841,798.544067 438.534180,787.382446 
	C439.139404,780.774292 438.708557,774.065491 438.638245,767.403076 
	C438.585358,762.393311 436.656067,760.453064 431.728882,760.366821 
	C427.399109,760.291016 423.066956,760.338562 418.735901,760.351196 
	C411.938263,760.370972 408.912292,763.176697 408.386536,770.087463 
	C408.222687,772.241089 408.350037,774.416626 408.337708,776.582092 
	C408.318665,779.923462 408.746307,783.504150 404.083984,784.298340 
	C397.980347,785.338135 394.537140,783.855774 393.060760,779.160950 
	C392.529449,777.471375 392.650421,775.539795 392.666901,773.720398 
	C392.866364,751.711121 391.988861,729.700439 394.470551,707.712769 
	C395.550201,698.147095 394.650940,698.152344 404.263611,698.610107 
	C407.258453,698.752686 408.469849,699.830505 408.354004,702.796997 
	C408.230652,705.956787 408.259247,709.128723 408.371948,712.290039 
	C408.553406,717.378662 411.803619,720.580994 416.796661,720.634094 
	C421.793518,720.687317 426.791809,720.693787 431.788635,720.641174 
	C436.788055,720.588562 438.545166,718.826904 438.624237,713.648743 
	C438.713257,707.819763 438.495514,701.982971 438.702606,696.159912 
	C438.865051,691.591370 437.189056,687.356750 435.779144,683.358521 
	C432.116150,672.970825 423.504730,668.822449 413.017975,668.436157 
	C405.032776,668.142090 397.028198,668.334900 389.032532,668.370911 
	C375.222382,668.433105 364.366150,679.259583 364.356262,693.012085 
	C364.333679,724.495789 364.241180,755.980103 364.421417,787.462769 
	C364.466980,795.423401 367.042664,802.673401 373.966675,808.464783 
M593.862427,590.134277 
	C587.263428,586.421814 580.372559,582.807556 575.113647,577.491028 
	C567.188904,569.479370 560.468994,560.334473 556.953796,549.318176 
	C554.643433,542.078003 553.461670,534.276245 553.762573,527.071106 
	C554.008606,521.180725 553.952698,514.705811 556.482727,508.640839 
	C560.108582,499.948883 563.454102,491.261597 570.028625,484.275269 
	C580.947937,472.672150 593.628052,465.138062 609.816345,462.026764 
	C619.824707,460.103210 628.582153,462.119904 637.671265,463.258911 
	C638.462097,464.809509 637.827881,465.820770 637.515564,466.944916 
	C636.446472,470.793121 638.919800,475.613983 642.346191,476.539948 
	C647.614502,477.963654 652.888245,479.067810 658.447266,478.722076 
	C662.528748,478.468323 666.566162,478.419952 670.602295,480.338501 
	C673.748474,481.833984 676.636108,479.631653 678.896423,477.168671 
	C680.953430,474.927368 681.128845,472.347015 679.994385,469.731018 
	C676.477295,461.620758 673.388733,453.336609 669.045288,445.571106 
	C664.380920,437.231781 661.233459,436.484344 654.468018,443.131744 
	C652.728577,444.840851 651.463684,445.480042 648.627747,444.871826 
	C640.327576,443.091766 632.144409,440.603485 623.519409,440.313507 
	C614.654480,440.015472 606.363220,442.241516 597.781799,443.988922 
	C583.273315,446.943329 571.167236,453.653290 560.515381,463.231720 
	C552.167847,470.738068 546.010132,479.852722 541.114502,490.259766 
	C535.275574,502.672241 534.301453,515.730957 532.277649,528.780090 
	C531.548706,533.479980 534.918091,537.340393 534.316772,541.873657 
	C533.662659,546.804993 535.678406,551.408020 537.006653,555.774536 
	C539.604309,564.314209 543.669922,572.343750 549.042297,579.742310 
	C556.661804,590.235535 566.335022,598.188599 577.217407,604.888184 
	C586.991882,610.905701 597.980286,614.095520 608.982544,616.211182 
	C615.654846,617.494324 623.239441,618.471802 629.951660,614.664185 
	C633.660034,612.560486 635.835266,607.286072 634.516479,602.524963 
	C633.578979,599.140442 630.943970,596.752075 627.396973,596.471069 
	C616.243958,595.587646 605.360352,593.437927 593.862427,590.134277 
M240.650848,801.282471 
	C240.651108,769.975281 240.628281,738.668030 240.665405,707.360840 
	C240.676834,697.718994 239.733032,698.753113 249.109207,698.645813 
	C250.441208,698.630554 251.785065,698.727295 253.103104,698.584534 
	C257.573914,698.100342 262.500549,694.418823 262.585693,691.264587 
	C262.733887,685.773376 262.789307,680.268433 262.564972,674.782288 
	C262.410217,670.997192 260.292816,668.445007 256.290619,668.431274 
	C235.641678,668.360596 214.992096,668.352417 194.343353,668.451172 
	C190.387238,668.470032 188.293396,670.760010 188.337479,674.853149 
	C188.382309,679.015869 188.345245,683.179382 188.341400,687.342590 
	C188.334412,694.865356 188.896805,695.919067 195.717331,698.150024 
	C197.848328,698.847046 200.315063,698.613098 202.629761,698.635559 
	C210.303970,698.710144 210.336990,698.680481 210.340439,706.316650 
	C210.355392,739.455688 210.340927,772.594666 210.360275,805.733704 
	C210.363342,810.978394 211.901718,812.544922 217.156479,812.638916 
	C221.484573,812.716309 225.815460,812.647522 230.145065,812.628845 
	C238.993851,812.590759 240.553741,811.039734 240.650848,801.282471 
M586.508118,784.358704 
	C584.009033,784.355042 581.480591,784.105713 579.016968,784.399353 
	C573.976868,785.000061 572.479736,783.050964 572.538940,777.977295 
	C572.801331,755.488403 572.655396,732.994812 572.657166,710.502869 
	C572.658020,699.840027 572.701416,689.177002 572.645813,678.514465 
	C572.604919,670.675110 570.290649,668.379150 562.691345,668.375977 
	C559.525818,668.374634 556.360291,668.378723 553.194763,668.380066 
	C544.147522,668.383911 542.360901,670.129089 542.349854,679.055481 
	C542.333130,692.550659 542.331909,706.045776 542.333313,719.540955 
	C542.336243,747.864075 542.333374,776.187256 542.361023,804.510376 
	C542.367065,810.666931 543.952026,812.613037 549.171814,812.626648 
	C568.831055,812.677979 588.490479,812.671082 608.149719,812.622742 
	C612.776306,812.611389 616.341736,809.256897 616.588867,804.653809 
	C616.785095,800.998596 616.690674,797.324646 616.641235,793.660095 
	C616.561646,787.756226 613.295837,784.426758 607.497498,784.380371 
	C600.833679,784.327087 594.169067,784.362976 586.508118,784.358704 
M350.426239,332.050720 
	C342.540070,335.600861 335.859650,341.119446 328.498535,345.530487 
	C325.385101,347.396149 325.756134,350.679993 329.097565,352.402863 
	C334.850586,355.369171 340.830658,357.944183 346.372101,361.257599 
	C351.673340,364.427338 356.528870,364.569489 361.817993,361.503632 
	C379.292877,351.374481 396.392670,340.620819 414.317596,331.235443 
	C429.847046,323.104340 444.875549,314.017822 460.142365,305.383484 
	C470.659485,299.435394 481.290924,293.683716 491.702972,287.558136 
	C497.042480,284.416809 496.993317,280.654358 491.848297,277.773041 
	C485.376099,274.148407 478.749207,270.800995 472.229034,267.260406 
	C470.332123,266.230347 468.146332,265.872253 466.444244,266.642242 
	C462.237518,268.545227 457.533813,269.426697 453.813354,272.326416 
	C446.611084,277.939850 438.382507,281.850098 430.514618,286.326752 
	C422.111481,291.108002 412.988861,294.694580 404.863586,299.874512 
	C396.822205,305.000916 388.251617,309.160370 380.318237,314.485748 
	C370.932678,320.785950 360.247284,324.978729 350.426239,332.050720 
M402.164825,386.611542 
	C403.545105,386.667603 404.737762,386.200226 405.924316,385.498291 
	C413.014435,381.303833 420.366516,377.506500 427.198090,372.930084 
	C442.462067,362.704651 458.881165,354.445679 474.379944,344.592010 
	C488.454071,335.644043 503.658264,328.491974 518.106934,320.104950 
	C523.226318,317.133301 528.763123,314.813995 533.374207,310.912018 
	C537.982605,307.012329 537.968933,304.063416 532.769470,301.073334 
	C527.940369,298.296234 522.908020,295.865143 518.138733,292.993408 
	C512.596558,289.656281 506.767761,289.223724 501.653412,292.764954 
	C494.558563,297.677551 486.639374,301.017822 479.251740,305.326965 
	C465.096405,313.583588 450.462463,321.119598 436.524261,329.729126 
	C428.565002,334.645538 420.403473,339.308838 412.628387,344.625610 
	C403.377075,350.951843 393.023926,355.714539 382.954254,360.768280 
	C379.779114,362.361816 377.328827,364.785156 374.366882,366.594849 
	C369.697754,369.447693 370.201630,373.046539 375.071167,375.496124 
	C379.366974,377.657166 383.556274,380.044922 387.926727,382.038544 
	C392.234100,384.003418 396.373505,386.597870 402.164825,386.611542 
M387.569672,486.112396 
	C395.691376,487.536041 396.655548,486.765625 396.657135,478.738403 
	C396.662231,453.279663 396.559387,427.820251 396.745056,402.362885 
	C396.777191,397.955994 395.402496,394.724731 391.538391,393.113831 
	C384.014252,389.977234 377.031433,385.785004 369.653107,382.392883 
	C363.768219,379.687347 360.441345,381.667053 360.417725,387.996216 
	C360.317749,414.784363 360.364288,441.573029 360.347748,468.361511 
	C360.346588,470.241302 360.342316,472.346497 362.207581,473.210571 
	C365.617493,474.790283 368.307129,477.410431 371.896576,478.872101 
	C376.961334,480.934601 382.525665,482.083557 387.569672,486.112396 
M632.652283,498.464661 
	C632.644531,495.799194 632.792236,493.122314 632.597473,490.470581 
	C632.159241,484.505493 626.117798,478.278839 621.230164,478.574341 
	C615.977661,478.891937 612.355591,483.931458 612.351990,490.961334 
	C612.344055,506.621552 612.489258,522.283936 612.257324,537.940735 
	C612.187866,542.628601 614.091431,545.979553 617.433167,548.673218 
	C622.921143,553.096985 628.402405,557.577454 634.256470,561.478760 
	C637.272278,563.488647 640.776489,565.659790 644.872009,564.313782 
	C649.361938,562.838074 652.064941,559.599365 652.537842,554.980652 
	C652.994934,550.515869 650.621338,547.154968 647.108765,544.593872 
	C643.543091,541.993958 639.927002,539.463318 636.358643,536.867065 
	C633.806885,535.010498 632.501892,532.717896 632.576782,529.305298 
	C632.795288,519.347229 632.652588,509.381256 632.652283,498.464661 
M686.953796,545.329468 
	C685.624268,549.506958 684.656128,553.817627 682.539124,557.708984 
	C680.550354,561.364868 680.242249,564.783752 682.252747,568.780212 
	C684.906006,574.054321 691.819641,576.069946 696.110229,572.140442 
	C704.939758,564.053833 707.407349,553.302612 708.678162,542.026245 
	C709.207581,537.328674 706.516907,535.170410 702.781677,533.407715 
	C699.323486,531.775757 696.380188,532.082092 693.101562,534.129272 
	C689.054626,536.656128 688.954651,540.981262 686.953796,545.329468 
M708.431641,518.482239 
	C709.459106,506.883301 707.067078,496.341736 698.821167,487.641449 
	C696.700073,485.403412 694.145508,483.153046 691.030640,484.921631 
	C687.696350,486.814850 684.196777,488.775604 684.253723,493.832153 
	C684.348022,502.217255 687.258545,509.764862 689.984375,517.457336 
	C691.297729,521.163757 693.088867,524.215271 697.217896,524.541016 
	C701.724487,524.896606 705.601440,523.286133 708.431641,518.482239 
M676.716675,597.265808 
	C679.069519,595.730957 679.873230,593.093628 681.355103,590.921692 
	C684.639160,586.108643 681.713867,582.116150 679.385193,578.644043 
	C676.915649,574.961670 672.399597,575.736267 668.843384,577.052368 
	C663.108276,579.174988 658.312561,583.114319 653.286804,586.531921 
	C649.698669,588.971985 648.768677,593.509949 648.982910,596.952820 
	C649.423035,604.025208 660.901428,607.817017 666.808655,603.182739 
	C669.706421,600.909424 673.040955,599.548340 676.716675,597.265808 
z"/>
<path fill="#000000" opacity="1.000000" stroke="none" 
	d="
M658.650269,755.999878 
	C658.650574,745.833679 658.769043,736.165588 658.616455,726.501770 
	C658.480774,717.904968 661.831543,709.649292 660.822876,700.950500 
	C660.546997,698.571472 662.474060,697.023193 664.927002,696.759033 
	C666.576477,696.581482 668.259460,696.742188 669.921448,696.647644 
	C674.667053,696.377686 676.398071,698.701538 676.377197,703.300964 
	C676.278748,724.966187 676.340637,746.632141 676.342346,768.297791 
	C676.342651,771.630920 676.254089,774.965942 676.337646,778.296753 
	C676.441711,782.447083 674.597229,784.243164 670.367371,784.421692 
	C661.207581,784.808167 658.777161,784.263428 658.664551,772.999084 
	C658.609619,767.499878 658.652161,761.999634 658.650269,755.999878 
z"/>
</svg>